<svg viewBox="0 0 120 120" xmlns="http://www.w3.org/2000/svg">
    <defs>
        <linearGradient id="shieldGrad" x1="0%" y1="0%" x2="100%" y2="100%">
            <stop offset="0%" stopColor="#0f172a" stop-opacity="0.8" />
            <stop offset="100%" stopColor="#1e293b" stop-opacity="0.4" />
        </linearGradient>
        <linearGradient id="neonCyan" x1="0%" y1="100%" x2="100%" y2="0%">
            <stop offset="0%" stopColor="#06b6d4" />
            <stop offset="100%" stopColor="#3b82f6" />
        </linearGradient>
        <linearGradient id="neonEmerald" x1="0%" y1="0%" x2="100%" y2="100%">
            <stop offset="0%" stopColor="#10b981" />
            <stop offset="100%" stopColor="#059669" />
        </linearGradient>
        <linearGradient id="coreGlow" x1="0%" y1="0%" x2="100%" y2="100%">
            <stop offset="0%" stopColor="#ffffff" stop-opacity="0.95" />
            <stop offset="100%" stopColor="#c7d2fe" stop-opacity="0.7" />
        </linearGradient>
    </defs>
    
    <path d="M60 5 L108 32 L108 88 L60 115 L12 88 L12 32 Z" fill="url(#shieldGrad)" stroke="rgba(255,255,255,0.15)" stroke-width="1.5" />
    <path d="M30 35 L60 60 L90 35 M30 85 L60 60 L90 85 M12 60 L60 60 L108 60" stroke="rgba(59, 130, 246, 0.2)" stroke-width="2" />
    <circle cx="60" cy="60" r="32" stroke="url(#neonCyan)" stroke-width="3" fill="none" opacity="0.6" />
    
    <g transform="translate(60,60) scale(1) translate(-60,-60)">
        <circle cx="60" cy="60" r="18" fill="url(#neonCyan)" opacity="0.4" />
        <rect x="44" y="46" width="6" height="28" rx="2" fill="url(#coreGlow)" />
        <path d="M 56 46 h 10 c 5.5 0 9 3 9 7 c 0 3 -2 5 -5 6 c 4 1 7 3.5 7 7.5 c 0 4.5 -4 7.5 -10 7.5 h -11 v -28 z m 6 11 h 3 c 2.5 0 4 -1 4 -3 c 0 -2 -1.5 -3 -4 -3 h -3 v 6 z m 0 11 h 4 c 2.5 0 4.5 -1 4.5 -3.5 c 0 -2.5 -2 -3.5 -4.5 -3.5 h -4 v 7 z" fill="url(#coreGlow)" />
    </g>
</svg>
